<?xml version="1.0" encoding="utf-8"?>
<!-- Generator: Adobe Illustrator 19.2.0, SVG Export Plug-In . SVG Version: 6.00 Build 0)  -->
<svg version="1.2" baseProfile="tiny" id="Layer_1" xmlns="http://www.w3.org/2000/svg" xmlns:xlink="http://www.w3.org/1999/xlink"
	 x="0px" y="0px" viewBox="0 0 53 53" xml:space="preserve">
<g id="Layer_2" display="none">
	<rect x="20" y="21.058" display="inline" fill="#3FFF61" width="13" height="11"/>
</g>
<g id="Layer_1_1_">
	<path d="M30.499,30.502h-8.01c-0.416,0-0.771-0.146-1.063-0.438c-0.292-0.292-0.438-0.647-0.438-1.063v-4.997
		c0-0.416,0.146-0.771,0.438-1.063c0.292-0.292,0.646-0.438,1.063-0.438h8.01c0.416,0,0.771,0.146,1.063,0.438
		C31.854,23.232,32,23.587,32,24.003V29c0,0.416-0.146,0.771-0.438,1.063C31.269,30.355,30.915,30.502,30.499,30.502z
		 M22.489,23.499c-0.136,0-0.254,0.05-0.354,0.15s-0.15,0.218-0.15,0.354V29c0,0.136,0.05,0.254,0.15,0.354
		c0.1,0.1,0.218,0.15,0.354,0.15h8.01c0.136,0,0.252-0.05,0.348-0.15c0.096-0.1,0.144-0.218,0.144-0.354v-4.997
		c0-0.136-0.048-0.254-0.144-0.354c-0.096-0.1-0.212-0.15-0.348-0.15H22.489z M25.491,28.003h-2.005c-0.136,0-0.252-0.05-0.348-0.15
		c-0.096-0.1-0.144-0.218-0.144-0.354s0.048-0.252,0.144-0.348s0.212-0.144,0.348-0.144h2.005c0.136,0,0.254,0.048,0.354,0.144
		s0.15,0.212,0.15,0.348s-0.05,0.254-0.15,0.354C25.746,27.953,25.627,28.003,25.491,28.003z M25.491,25.997h-2.005
		c-0.136,0-0.252-0.048-0.348-0.144c-0.096-0.096-0.144-0.212-0.144-0.348s0.048-0.254,0.144-0.354c0.096-0.1,0.212-0.15,0.348-0.15
		h2.005c0.136,0,0.254,0.05,0.354,0.15s0.15,0.218,0.15,0.354c0,0.136-0.05,0.252-0.15,0.348S25.627,25.997,25.491,25.997z
		 M27.497,25.757c0-0.673,0.332-1.009,0.997-1.009s0.997,0.336,0.997,1.009c0,0.665-0.332,0.997-0.997,0.997
		S27.497,26.421,27.497,25.757z M28.493,27.174c0.36,0,0.659,0.072,0.895,0.216c0.236,0.144,0.354,0.312,0.354,0.504
		c0,0.096-0.12,0.18-0.36,0.252s-0.536,0.108-0.889,0.108c-0.376,0-0.678-0.036-0.907-0.108c-0.228-0.072-0.342-0.156-0.342-0.252
		c0-0.192,0.114-0.36,0.342-0.504C27.815,27.246,28.117,27.174,28.493,27.174z"/>
	<g>
		<g>
			<circle cx="23.5" cy="52.5" r="0.5"/>
		</g>
		<g>
			<path d="M37.5,52c-0.275,0-0.725,0-1,0S36,52.225,36,52.5s0.225,0.5,0.5,0.5s0.725,0,1,0s0.725,0,1,0s0.5-0.225,0.5-0.5
				S38.775,52,38.5,52S37.775,52,37.5,52z"/>
		</g>
		<g>
			<path d="M41.5,52c-0.275,0-0.5,0.225-0.5,0.5s0.225,0.5,0.5,0.5s0.725,0,1,0s0.5-0.225,0.5-0.5S42.775,52,42.5,52
				S41.775,52,41.5,52z"/>
		</g>
		<g>
			<circle cx="40.5" cy="51.5" r="0.5"/>
		</g>
		<g>
			<path d="M49,51.5c0,0.275-0.225,0.5-0.5,0.5S48,52.225,48,52.5s0.225,0.5,0.5,0.5s0.725,0,1,0s0.5-0.225,0.5-0.5s0-0.725,0-1
				s0.225-0.5,0.5-0.5s0.5,0.225,0.5,0.5s0,0.725,0,1s0.225,0.5,0.5,0.5s0.5-0.225,0.5-0.5s0.225-0.5,0.5-0.5s0.5-0.225,0.5-0.5
				S52.775,51,52.5,51S52,50.775,52,50.5s0-0.725,0-1s0-0.725,0-1S51.775,48,51.5,48S51,48.225,51,48.5S50.775,49,50.5,49
				S50,49.225,50,49.5S49.775,50,49.5,50S49,50.225,49,50.5S49,51.225,49,51.5z"/>
		</g>
		<g>
			<path d="M20.5,50c-0.275,0-0.5,0.225-0.5,0.5s0.225,0.5,0.5,0.5s0.725,0,1,0s0.5-0.225,0.5-0.5S21.775,50,21.5,50
				S20.775,50,20.5,50z"/>
		</g>
		<g>
			<path d="M36,50.5c0-0.275-0.225-0.5-0.5-0.5s-0.725,0-1,0s-0.725,0-1,0S33,50.225,33,50.5s0,0.725,0,1s0,0.725,0,1
				s0.225,0.5,0.5,0.5s0.725,0,1,0s0.5-0.225,0.5-0.5s0.225-0.5,0.5-0.5s0.5-0.225,0.5-0.5S36,50.775,36,50.5z"/>
		</g>
		<g>
			<path d="M9,49.5c0-0.275,0-0.725,0-1S8.775,48,8.5,48S8,48.225,8,48.5s0,0.725,0,1s0,0.725,0,1s0,0.725,0,1s0,0.725,0,1
				S8.225,53,8.5,53S9,52.775,9,52.5S9.225,52,9.5,52s0.725,0,1,0s0.5-0.225,0.5-0.5S10.775,51,10.5,51S10,50.775,10,50.5
				S9.775,50,9.5,50C9.225,50,9,49.775,9,49.5z"/>
		</g>
		<g>
			<path d="M19.5,49c-0.275,0-0.725,0-1,0s-0.725,0-1,0s-0.725,0-1,0S16,48.775,16,48.5s0.225-0.5,0.5-0.5s0.5-0.225,0.5-0.5
				S16.775,47,16.5,47s-0.725,0-1,0S15,47.225,15,47.5s0,0.725,0,1S14.775,49,14.5,49S14,49.225,14,49.5s0.225,0.5,0.5,0.5
				s0.5,0.225,0.5,0.5S14.775,51,14.5,51S14,50.775,14,50.5S13.775,50,13.5,50S13,50.225,13,50.5s0,0.725,0,1s0.225,0.5,0.5,0.5
				s0.5,0.225,0.5,0.5s0.225,0.5,0.5,0.5s0.725,0,1,0s0.725,0,1,0s0.725,0,1,0s0.725,0,1,0s0.725,0,1,0s0.5-0.225,0.5-0.5
				S19.775,52,19.5,52S19,51.775,19,51.5s0-0.725,0-1s0.225-0.5,0.5-0.5s0.5-0.225,0.5-0.5S19.775,49,19.5,49z M18,50.5
				c0,0.275,0,0.725,0,1S17.775,52,17.5,52S17,51.775,17,51.5s0-0.725,0-1s0.225-0.5,0.5-0.5C17.775,50,18,50.225,18,50.5z"/>
		</g>
		<g>
			<path d="M22.5,49c-0.275,0-0.5,0.225-0.5,0.5s0.225,0.5,0.5,0.5s0.725,0,1,0s0.5-0.225,0.5-0.5S23.775,49,23.5,49
				S22.775,49,22.5,49z"/>
		</g>
		<g>
			<circle cx="37.5" cy="49.5" r="0.5"/>
		</g>
		<g>
			<path d="M3.5,48c-0.275,0-0.725,0-1,0S2,48.225,2,48.5s0,0.725,0,1s0,0.725,0,1S2.225,51,2.5,51s0.725,0,1,0s0.725,0,1,0
				S5,50.775,5,50.5s0-0.725,0-1s0-0.725,0-1S4.775,48,4.5,48S3.775,48,3.5,48z"/>
		</g>
		<g>
			<path d="M13,48.5c0-0.275,0.225-0.5,0.5-0.5s0.5-0.225,0.5-0.5S13.775,47,13.5,47s-0.725,0-1,0S12,47.225,12,47.5
				S11.775,48,11.5,48S11,48.225,11,48.5S10.775,49,10.5,49S10,49.225,10,49.5s0.225,0.5,0.5,0.5s0.725,0,1,0s0.725,0,1,0
				s0.5-0.225,0.5-0.5S13,48.775,13,48.5z"/>
		</g>
		<g>
			<circle cx="20.5" cy="48.5" r="0.5"/>
		</g>
		<g>
			<circle cx="33.5" cy="48.5" r="0.5"/>
		</g>
		<g>
			<circle cx="36.5" cy="48.5" r="0.5"/>
		</g>
		<g>
			<circle cx="9.5" cy="47.5" r="0.5"/>
		</g>
		<g>
			<circle cx="32.5" cy="47.5" r="0.5"/>
		</g>
		<g>
			<circle cx="35.5" cy="47.5" r="0.5"/>
		</g>
		<g>
			<path d="M40.5,47c-0.275,0-0.5-0.225-0.5-0.5S39.775,46,39.5,46S39,46.225,39,46.5S38.775,47,38.5,47S38,47.225,38,47.5
				s0,0.725,0,1s0.225,0.5,0.5,0.5s0.5-0.225,0.5-0.5s0.225-0.5,0.5-0.5s0.725,0,1,0s0.5-0.225,0.5-0.5S40.775,47,40.5,47z"/>
		</g>
		<g>
			<circle cx="52.5" cy="47.5" r="0.5"/>
		</g>
		<g>
			<path d="M5.5,46c-0.275,0-0.725,0-1,0s-0.725,0-1,0s-0.725,0-1,0s-0.725,0-1,0s-0.725,0-1,0S0,46.225,0,46.5s0,0.725,0,1
				s0,0.725,0,1s0,0.725,0,1s0,0.725,0,1s0,0.725,0,1s0,0.725,0,1S0.225,53,0.5,53s0.725,0,1,0s0.725,0,1,0s0.725,0,1,0s0.725,0,1,0
				s0.725,0,1,0s0.725,0,1,0S7,52.775,7,52.5s0-0.725,0-1s0-0.725,0-1s0-0.725,0-1s0-0.725,0-1s0-0.725,0-1s0-0.725,0-1
				S6.775,46,6.5,46C6.225,46,5.775,46,5.5,46z M6,47.5c0,0.275,0,0.725,0,1s0,0.725,0,1s0,0.725,0,1s0,0.725,0,1S5.775,52,5.5,52
				s-0.725,0-1,0s-0.725,0-1,0s-0.725,0-1,0s-0.725,0-1,0S1,51.775,1,51.5s0-0.725,0-1s0-0.725,0-1s0-0.725,0-1s0-0.725,0-1
				S1.225,47,1.5,47s0.725,0,1,0s0.725,0,1,0s0.725,0,1,0s0.725,0,1,0S6,47.225,6,47.5z"/>
		</g>
		<g>
			<circle cx="26.5" cy="46.5" r="0.5"/>
		</g>
		<g>
			<circle cx="37.5" cy="46.5" r="0.5"/>
		</g>
		<g>
			<circle cx="41.5" cy="46.5" r="0.5"/>
		</g>
		<g>
			<circle cx="46.5" cy="46.5" r="0.5"/>
		</g>
		<g>
			<path d="M9.5,46c0.275,0,0.5,0.225,0.5,0.5s0.225,0.5,0.5,0.5s0.725,0,1,0s0.5-0.225,0.5-0.5S11.775,46,11.5,46
				S11,45.775,11,45.5S10.775,45,10.5,45S10,44.775,10,44.5s0.225-0.5,0.5-0.5s0.5,0.225,0.5,0.5s0.225,0.5,0.5,0.5
				s0.5-0.225,0.5-0.5s0.225-0.5,0.5-0.5s0.5-0.225,0.5-0.5S12.775,43,12.5,43s-0.725,0-1,0S11,42.775,11,42.5S10.775,42,10.5,42
				s-0.725,0-1,0S9,42.225,9,42.5S8.775,43,8.5,43S8,43.225,8,43.5S8.225,44,8.5,44S9,44.225,9,44.5S8.775,45,8.5,45
				S8,45.225,8,45.5s0,0.725,0,1S8.225,47,8.5,47S9,46.775,9,46.5S9.225,46,9.5,46z"/>
		</g>
		<g>
			<circle cx="15.5" cy="45.5" r="0.5"/>
		</g>
		<g>
			<path d="M34.5,45c-0.275,0-0.5,0.225-0.5,0.5s0.225,0.5,0.5,0.5s0.725,0,1,0s0.5-0.225,0.5-0.5S35.775,45,35.5,45
				S34.775,45,34.5,45z"/>
		</g>
		<g>
			<path d="M39,45.5c0-0.275,0.225-0.5,0.5-0.5s0.5-0.225,0.5-0.5s0.225-0.5,0.5-0.5s0.5-0.225,0.5-0.5s0-0.725,0-1
				S40.775,42,40.5,42S40,42.225,40,42.5S39.775,43,39.5,43s-0.725,0-1,0S38,43.225,38,43.5S37.775,44,37.5,44s-0.725,0-1,0
				S36,44.225,36,44.5s0.225,0.5,0.5,0.5s0.725,0,1,0s0.5,0.225,0.5,0.5s0.225,0.5,0.5,0.5S39,45.775,39,45.5z"/>
		</g>
		<g>
			<circle cx="40.5" cy="45.5" r="0.5"/>
		</g>
		<g>
			<circle cx="51.5" cy="45.5" r="0.5"/>
		</g>
		<g>
			<circle cx="3.5" cy="44.5" r="0.5"/>
		</g>
		<g>
			<circle cx="6.5" cy="44.5" r="0.5"/>
		</g>
		<g>
			<circle cx="41.5" cy="44.5" r="0.5"/>
		</g>
		<g>
			<path d="M14,43.5c0,0.275,0,0.725,0,1s0.225,0.5,0.5,0.5s0.5-0.225,0.5-0.5s0.225-0.5,0.5-0.5s0.5-0.225,0.5-0.5s0-0.725,0-1
				s0-0.725,0-1s0.225-0.5,0.5-0.5s0.725,0,1,0s0.5-0.225,0.5-0.5S17.775,40,17.5,40S17,39.775,17,39.5S16.775,39,16.5,39
				S16,39.225,16,39.5S15.775,40,15.5,40S15,40.225,15,40.5s0,0.725,0,1S14.775,42,14.5,42S14,41.775,14,41.5S13.775,41,13.5,41
				s-0.725,0-1,0S12,41.225,12,41.5s0.225,0.5,0.5,0.5s0.5,0.225,0.5,0.5s0.225,0.5,0.5,0.5S14,43.225,14,43.5z"/>
		</g>
		<g>
			<path d="M5.5,42c-0.275,0-0.725,0-1,0S4,41.775,4,41.5s0-0.725,0-1s0-0.725,0-1s0-0.725,0-1S4.225,38,4.5,38S5,37.775,5,37.5
				s0-0.725,0-1S4.775,36,4.5,36S4,36.225,4,36.5S3.775,37,3.5,37S3,37.225,3,37.5s0,0.725,0,1s0,0.725,0,1s0,0.725,0,1
				S2.775,41,2.5,41S2,40.775,2,40.5S1.775,40,1.5,40S1,40.225,1,40.5s0,0.725,0,1S0.775,42,0.5,42S0,42.225,0,42.5S0.225,43,0.5,43
				S1,43.225,1,43.5S1.225,44,1.5,44s0.725,0,1,0S3,43.775,3,43.5S2.775,43,2.5,43S2,42.775,2,42.5S2.225,42,2.5,42S3,42.225,3,42.5
				S3.225,43,3.5,43s0.725,0,1,0s0.725,0,1,0s0.725,0,1,0S7,42.775,7,42.5S6.775,42,6.5,42C6.225,42,5.775,42,5.5,42z"/>
		</g>
		<g>
			<path d="M31.5,42c-0.275,0-0.5-0.225-0.5-0.5S30.775,41,30.5,41S30,40.775,30,40.5s0-0.725,0-1s0-0.725,0-1S29.775,38,29.5,38
				S29,38.225,29,38.5s0,0.725,0,1s0,0.725,0,1S28.775,41,28.5,41s-0.725,0-1,0S27,41.225,27,41.5s0.225,0.5,0.5,0.5
				s0.5,0.225,0.5,0.5s0.225,0.5,0.5,0.5s0.5-0.225,0.5-0.5s0.225-0.5,0.5-0.5s0.5,0.225,0.5,0.5s0.225,0.5,0.5,0.5s0.725,0,1,0
				s0.5,0.225,0.5,0.5s0,0.725,0,1S31.775,45,31.5,45S31,44.775,31,44.5S30.775,44,30.5,44s-0.725,0-1,0s-0.725,0-1,0
				S28,43.775,28,43.5S27.775,43,27.5,43s-0.725,0-1,0s-0.725,0-1,0S25,42.775,25,42.5S24.775,42,24.5,42S24,42.225,24,42.5
				s0,0.725,0,1s0,0.725,0,1s0,0.725,0,1S23.775,46,23.5,46S23,46.225,23,46.5s0,0.725,0,1s0.225,0.5,0.5,0.5s0.5,0.225,0.5,0.5
				s0.225,0.5,0.5,0.5s0.725,0,1,0s0.725,0,1,0s0.725,0,1,0s0.725,0,1,0s0.5,0.225,0.5,0.5s0.225,0.5,0.5,0.5s0.5,0.225,0.5,0.5
				s0,0.725,0,1S29.775,52,29.5,52S29,51.775,29,51.5S28.775,51,28.5,51s-0.725,0-1,0s-0.725,0-1,0S26,51.225,26,51.5
				S25.775,52,25.5,52S25,52.225,25,52.5s0.225,0.5,0.5,0.5s0.725,0,1,0s0.725,0,1,0s0.725,0,1,0s0.725,0,1,0s0.725,0,1,0
				s0.725,0,1,0s0.5-0.225,0.5-0.5S31.775,52,31.5,52S31,51.775,31,51.5s0-0.725,0-1s0.225-0.5,0.5-0.5s0.5-0.225,0.5-0.5
				s0-0.725,0-1S31.775,48,31.5,48s-0.725,0-1,0S30,47.775,30,47.5S29.775,47,29.5,47S29,46.775,29,46.5s0-0.725,0-1
				s0.225-0.5,0.5-0.5s0.5,0.225,0.5,0.5s0,0.725,0,1s0.225,0.5,0.5,0.5s0.5-0.225,0.5-0.5s0.225-0.5,0.5-0.5s0.725,0,1,0
				s0.5-0.225,0.5-0.5s0-0.725,0-1s0.225-0.5,0.5-0.5s0.725,0,1,0s0.5-0.225,0.5-0.5S34.775,43,34.5,43S34,42.775,34,42.5
				S33.775,42,33.5,42S33,41.775,33,41.5S32.775,41,32.5,41S32,41.225,32,41.5S31.775,42,31.5,42z M28,45.5c0,0.275,0,0.725,0,1
				s0,0.725,0,1S27.775,48,27.5,48s-0.725,0-1,0s-0.725,0-1,0S25,47.775,25,47.5s0-0.725,0-1s0-0.725,0-1s0.225-0.5,0.5-0.5
				s0.725,0,1,0s0.725,0,1,0C27.775,45,28,45.225,28,45.5z"/>
		</g>
		<g>
			<circle cx="44.5" cy="42.5" r="0.5"/>
		</g>
		<g>
			<circle cx="7.5" cy="41.5" r="0.5"/>
		</g>
		<g>
			<circle cx="25.5" cy="41.5" r="0.5"/>
		</g>
		<g>
			<path d="M42.5,41c-0.275,0-0.725,0-1,0S41,41.225,41,41.5s0.225,0.5,0.5,0.5s0.725,0,1,0s0.725,0,1,0s0.5-0.225,0.5-0.5
				S43.775,41,43.5,41S42.775,41,42.5,41z"/>
		</g>
		<g>
			<path d="M50,41.5c0,0.275-0.225,0.5-0.5,0.5S49,41.775,49,41.5S48.775,41,48.5,41S48,40.775,48,40.5S47.775,40,47.5,40
				S47,40.225,47,40.5S46.775,41,46.5,41S46,40.775,46,40.5s0.225-0.5,0.5-0.5s0.5-0.225,0.5-0.5s0-0.725,0-1s0-0.725,0-1
				S46.775,37,46.5,37s-0.725,0-1,0s-0.725,0-1,0S44,37.225,44,37.5s0.225,0.5,0.5,0.5s0.725,0,1,0s0.5,0.225,0.5,0.5
				S45.775,39,45.5,39s-0.725,0-1,0S44,39.225,44,39.5s0,0.725,0,1s0.225,0.5,0.5,0.5s0.5,0.225,0.5,0.5s0.225,0.5,0.5,0.5
				s0.725,0,1,0s0.5,0.225,0.5,0.5s0.225,0.5,0.5,0.5s0.725,0,1,0s0.5,0.225,0.5,0.5S48.775,44,48.5,44s-0.725,0-1,0
				S47,43.775,47,43.5S46.775,43,46.5,43s-0.725,0-1,0S45,43.225,45,43.5S44.775,44,44.5,44S44,44.225,44,44.5s0,0.725,0,1
				s0,0.725,0,1s0,0.725,0,1s0,0.725,0,1s0.225,0.5,0.5,0.5s0.5,0.225,0.5,0.5S44.775,50,44.5,50S44,49.775,44,49.5
				S43.775,49,43.5,49S43,48.775,43,48.5S42.775,48,42.5,48s-0.725,0-1,0S41,48.225,41,48.5s0,0.725,0,1s0.225,0.5,0.5,0.5
				s0.725,0,1,0s0.5,0.225,0.5,0.5s0,0.725,0,1s0.225,0.5,0.5,0.5s0.5-0.225,0.5-0.5s0.225-0.5,0.5-0.5s0.5,0.225,0.5,0.5
				s0.225,0.5,0.5,0.5s0.5-0.225,0.5-0.5s0.225-0.5,0.5-0.5s0.5-0.225,0.5-0.5S46.775,50,46.5,50S46,49.775,46,49.5
				s0.225-0.5,0.5-0.5s0.725,0,1,0s0.5,0.225,0.5,0.5s0.225,0.5,0.5,0.5s0.5-0.225,0.5-0.5s0-0.725,0-1s0.225-0.5,0.5-0.5
				s0.5-0.225,0.5-0.5S49.775,47,49.5,47S49,46.775,49,46.5s0-0.725,0-1s0.225-0.5,0.5-0.5s0.725,0,1,0s0.5-0.225,0.5-0.5
				S50.775,44,50.5,44S50,43.775,50,43.5s0.225-0.5,0.5-0.5s0.725,0,1,0s0.725,0,1,0s0.5-0.225,0.5-0.5S52.775,42,52.5,42
				s-0.725,0-1,0S51,41.775,51,41.5S50.775,41,50.5,41S50,41.225,50,41.5z M48,45.5c0,0.275,0,0.725,0,1s0,0.725,0,1
				S47.775,48,47.5,48s-0.725,0-1,0s-0.725,0-1,0S45,47.775,45,47.5s0-0.725,0-1s0-0.725,0-1s0.225-0.5,0.5-0.5s0.725,0,1,0
				s0.725,0,1,0S48,45.225,48,45.5z"/>
		</g>
		<g>
			<circle cx="6.5" cy="40.5" r="0.5"/>
		</g>
		<g>
			<circle cx="20.5" cy="40.5" r="0.5"/>
		</g>
		<g>
			<path d="M24.5,41c0.275,0,0.5-0.225,0.5-0.5s0-0.725,0-1S24.775,39,24.5,39S24,39.225,24,39.5S23.775,40,23.5,40
				S23,40.225,23,40.5S22.775,41,22.5,41s-0.725,0-1,0S21,41.225,21,41.5s0,0.725,0,1S20.775,43,20.5,43S20,42.775,20,42.5
				s0-0.725,0-1S19.775,41,19.5,41S19,41.225,19,41.5S18.775,42,18.5,42S18,42.225,18,42.5s0.225,0.5,0.5,0.5s0.5,0.225,0.5,0.5
				s0,0.725,0,1S18.775,45,18.5,45S18,44.775,18,44.5S17.775,44,17.5,44s-0.725,0-1,0S16,44.225,16,44.5s0.225,0.5,0.5,0.5
				s0.5,0.225,0.5,0.5s0,0.725,0,1s0.225,0.5,0.5,0.5s0.5-0.225,0.5-0.5s0.225-0.5,0.5-0.5s0.5,0.225,0.5,0.5s0.225,0.5,0.5,0.5
				s0.725,0,1,0s0.5-0.225,0.5-0.5S20.775,46,20.5,46S20,45.775,20,45.5s0-0.725,0-1s0.225-0.5,0.5-0.5s0.5,0.225,0.5,0.5
				s0.225,0.5,0.5,0.5s0.725,0,1,0s0.5-0.225,0.5-0.5s0-0.725,0-1S22.775,43,22.5,43S22,42.775,22,42.5s0.225-0.5,0.5-0.5
				s0.725,0,1,0s0.5-0.225,0.5-0.5S24.225,41,24.5,41z"/>
		</g>
		<g>
			<circle cx="31.5" cy="40.5" r="0.5"/>
		</g>
		<g>
			<path d="M40,40.5c0-0.275,0.225-0.5,0.5-0.5s0.725,0,1,0s0.5-0.225,0.5-0.5s0-0.725,0-1S41.775,38,41.5,38S41,38.225,41,38.5
				S40.775,39,40.5,39S40,38.775,40,38.5S39.775,38,39.5,38s-0.725,0-1,0S38,38.225,38,38.5s0.225,0.5,0.5,0.5s0.5,0.225,0.5,0.5
				S38.775,40,38.5,40S38,40.225,38,40.5s0.225,0.5,0.5,0.5s0.5,0.225,0.5,0.5s0.225,0.5,0.5,0.5s0.5-0.225,0.5-0.5
				S40,40.775,40,40.5z"/>
		</g>
		<g>
			<path d="M51.5,40c-0.275,0-0.5,0.225-0.5,0.5s0.225,0.5,0.5,0.5s0.725,0,1,0s0.5-0.225,0.5-0.5s0-0.725,0-1S52.775,39,52.5,39
				S52,39.225,52,39.5S51.775,40,51.5,40z"/>
		</g>
		<g>
			<circle cx="0.5" cy="39.5" r="0.5"/>
		</g>
		<g>
			<circle cx="5.5" cy="39.5" r="0.5"/>
		</g>
		<g>
			<path d="M13.5,40c0.275,0,0.5-0.225,0.5-0.5S13.775,39,13.5,39s-0.725,0-1,0S12,39.225,12,39.5s0.225,0.5,0.5,0.5
				S13.225,40,13.5,40z"/>
		</g>
		<g>
			<circle cx="18.5" cy="39.5" r="0.5"/>
		</g>
		<g>
			<circle cx="22.5" cy="39.5" r="0.5"/>
		</g>
		<g>
			<path d="M7.5,39c0.275,0,0.725,0,1,0S9,39.225,9,39.5S8.775,40,8.5,40S8,40.225,8,40.5S8.225,41,8.5,41s0.725,0,1,0s0.725,0,1,0
				s0.5-0.225,0.5-0.5S10.775,40,10.5,40S10,39.775,10,39.5s0-0.725,0-1S9.775,38,9.5,38s-0.725,0-1,0S8,37.775,8,37.5
				S7.775,37,7.5,37S7,37.225,7,37.5S6.775,38,6.5,38S6,38.225,6,38.5S6.225,39,6.5,39C6.775,39,7.225,39,7.5,39z"/>
		</g>
		<g>
			<circle cx="15.5" cy="38.5" r="0.5"/>
		</g>
		<g>
			<path d="M17,38.5c0,0.275,0.225,0.5,0.5,0.5s0.5-0.225,0.5-0.5s0.225-0.5,0.5-0.5s0.725,0,1,0s0.5-0.225,0.5-0.5s0-0.725,0-1
				S19.775,36,19.5,36S19,35.775,19,35.5S18.775,35,18.5,35S18,35.225,18,35.5s0,0.725,0,1S17.775,37,17.5,37s-0.725,0-1,0
				S16,37.225,16,37.5s0.225,0.5,0.5,0.5S17,38.225,17,38.5z"/>
		</g>
		<g>
			<circle cx="23.5" cy="38.5" r="0.5"/>
		</g>
		<g>
			<circle cx="25.5" cy="38.5" r="0.5"/>
		</g>
		<g>
			<path d="M51,38.5c0,0.275,0.225,0.5,0.5,0.5s0.5-0.225,0.5-0.5s0.225-0.5,0.5-0.5s0.5-0.225,0.5-0.5s0-0.725,0-1s0-0.725,0-1
				s0-0.725,0-1S52.775,34,52.5,34S52,34.225,52,34.5s0,0.725,0,1s0,0.725,0,1S51.775,37,51.5,37S51,37.225,51,37.5
				S51,38.225,51,38.5z"/>
		</g>
		<g>
			<path d="M1.5,38C1.775,38,2,37.775,2,37.5S1.775,37,1.5,37s-0.725,0-1,0S0,37.225,0,37.5S0.225,38,0.5,38S1.225,38,1.5,38z"/>
		</g>
		<g>
			<path d="M14.5,37c-0.275,0-0.5-0.225-0.5-0.5s0.225-0.5,0.5-0.5s0.725,0,1,0c0.275,0,0.5-0.225,0.5-0.5S15.775,35,15.5,35
				S15,34.775,15,34.5S14.775,34,14.5,34S14,34.225,14,34.5S13.775,35,13.5,35S13,35.225,13,35.5s0,0.725,0,1S12.775,37,12.5,37
				S12,37.225,12,37.5s0.225,0.5,0.5,0.5s0.725,0,1,0s0.725,0,1,0s0.5-0.225,0.5-0.5C15,37.225,14.775,37,14.5,37z"/>
		</g>
		<g>
			<path d="M34.5,37c-0.275,0-0.5,0.225-0.5,0.5s0.225,0.5,0.5,0.5s0.725,0,1,0s0.5-0.225,0.5-0.5S35.775,37,35.5,37
				S34.775,37,34.5,37z"/>
		</g>
		<g>
			<circle cx="40.5" cy="37.5" r="0.5"/>
		</g>
		<g>
			<circle cx="6.5" cy="36.5" r="0.5"/>
		</g>
		<g>
			<path d="M9.5,37c0.275,0,0.5,0.225,0.5,0.5s0.225,0.5,0.5,0.5s0.5-0.225,0.5-0.5s0-0.725,0-1s0-0.725,0-1s0-0.725,0-1
				S10.775,34,10.5,34s-0.725,0-1,0S9,34.225,9,34.5S9.225,35,9.5,35s0.5,0.225,0.5,0.5S9.775,36,9.5,36S9,35.775,9,35.5
				S8.775,35,8.5,35S8,35.225,8,35.5s0,0.725,0,1S8.225,37,8.5,37S9.225,37,9.5,37z"/>
		</g>
		<g>
			<path d="M21,36.5c0,0.275,0,0.725,0,1s0.225,0.5,0.5,0.5s0.5-0.225,0.5-0.5s0-0.725,0-1S21.775,36,21.5,36
				C21.225,36,21,36.225,21,36.5z"/>
		</g>
		<g>
			<path d="M29.5,36c-0.275,0-0.725,0-1,0S28,36.225,28,36.5S27.775,37,27.5,37s-0.725,0-1,0S26,37.225,26,37.5s0.225,0.5,0.5,0.5
				s0.5,0.225,0.5,0.5S26.775,39,26.5,39S26,39.225,26,39.5s0.225,0.5,0.5,0.5s0.725,0,1,0s0.5-0.225,0.5-0.5s0-0.725,0-1
				s0.225-0.5,0.5-0.5s0.5-0.225,0.5-0.5s0.225-0.5,0.5-0.5s0.5-0.225,0.5-0.5C30,36.225,29.775,36,29.5,36z"/>
		</g>
		<g>
			<path d="M31,36.5c0,0.275-0.225,0.5-0.5,0.5S30,37.225,30,37.5s0.225,0.5,0.5,0.5s0.725,0,1,0s0.5,0.225,0.5,0.5s0,0.725,0,1
				s0.225,0.5,0.5,0.5s0.725,0,1,0s0.5,0.225,0.5,0.5s0.225,0.5,0.5,0.5s0.725,0,1,0s0.725,0,1,0s0.5-0.225,0.5-0.5s0-0.725,0-1
				S36.775,39,36.5,39S36,39.225,36,39.5S35.775,40,35.5,40S35,39.775,35,39.5S34.775,39,34.5,39s-0.725,0-1,0S33,38.775,33,38.5
				s0-0.725,0-1S32.775,37,32.5,37S32,36.775,32,36.5S31.775,36,31.5,36S31,36.225,31,36.5z"/>
		</g>
		<g>
			<circle cx="41.5" cy="36.5" r="0.5"/>
		</g>
		<g>
			<circle cx="3.5" cy="35.5" r="0.5"/>
		</g>
		<g>
			<path d="M22.5,36c0.275,0,0.725,0,1,0s0.5-0.225,0.5-0.5S23.775,35,23.5,35s-0.725,0-1,0S22,35.225,22,35.5
				C22,35.775,22.225,36,22.5,36z"/>
		</g>
		<g>
			<path d="M25.5,36c0.275,0,0.725,0,1,0s0.725,0,1,0s0.5-0.225,0.5-0.5s0.225-0.5,0.5-0.5s0.5-0.225,0.5-0.5S28.775,34,28.5,34
				S28,33.775,28,33.5s0.225-0.5,0.5-0.5s0.5-0.225,0.5-0.5S28.775,32,28.5,32s-0.725,0-1,0s-0.725,0-1,0S26,32.225,26,32.5
				s0.225,0.5,0.5,0.5s0.5,0.225,0.5,0.5S26.775,34,26.5,34S26,34.225,26,34.5S25.775,35,25.5,35S25,35.225,25,35.5
				C25,35.775,25.225,36,25.5,36z"/>
		</g>
		<g>
			<path d="M36.5,35c-0.275,0-0.5-0.225-0.5-0.5S35.775,34,35.5,34s-0.725,0-1,0S34,34.225,34,34.5s0.225,0.5,0.5,0.5
				s0.5,0.225,0.5,0.5s0.225,0.5,0.5,0.5s0.725,0,1,0s0.5-0.225,0.5-0.5S36.775,35,36.5,35z"/>
		</g>
		<g>
			<path d="M40,35.5c0-0.275,0-0.725,0-1s0-0.725,0-1S39.775,33,39.5,33S39,33.225,39,33.5S38.775,34,38.5,34S38,33.775,38,33.5
				s0-0.725,0-1s0-0.725,0-1s0-0.725,0-1S37.775,30,37.5,30S37,29.775,37,29.5s0.225-0.5,0.5-0.5s0.725,0,1,0s0.5-0.225,0.5-0.5
				s0-0.725,0-1s0-0.725,0-1S38.775,26,38.5,26S38,26.225,38,26.5s0,0.725,0,1S37.775,28,37.5,28s-0.725,0-1,0S36,27.775,36,27.5
				S35.775,27,35.5,27S35,27.225,35,27.5s0,0.725,0,1S34.775,29,34.5,29S34,29.225,34,29.5s0.225,0.5,0.5,0.5s0.725,0,1,0
				s0.5,0.225,0.5,0.5s0.225,0.5,0.5,0.5s0.5,0.225,0.5,0.5S36.775,32,36.5,32s-0.725,0-1,0s-0.725,0-1,0S34,31.775,34,31.5
				S33.775,31,33.5,31S33,31.225,33,31.5s0,0.725,0,1s0,0.725,0,1s0.225,0.5,0.5,0.5s0.5-0.225,0.5-0.5s0.225-0.5,0.5-0.5
				s0.725,0,1,0s0.5,0.225,0.5,0.5s0.225,0.5,0.5,0.5s0.5,0.225,0.5,0.5s0.225,0.5,0.5,0.5s0.725,0,1,0s0.5,0.225,0.5,0.5
				S38.775,36,38.5,36s-0.725,0-1,0S37,36.225,37,36.5s0.225,0.5,0.5,0.5s0.725,0,1,0s0.725,0,1,0s0.5-0.225,0.5-0.5
				S40,35.775,40,35.5z"/>
		</g>
		<g>
			<circle cx="43.5" cy="35.5" r="0.5"/>
		</g>
		<g>
			<path d="M48.5,35c-0.275,0-0.5,0.225-0.5,0.5S47.775,36,47.5,36S47,36.225,47,36.5s0.225,0.5,0.5,0.5s0.5,0.225,0.5,0.5
				s0,0.725,0,1s0.225,0.5,0.5,0.5s0.725,0,1,0s0.5-0.225,0.5-0.5s0-0.725,0-1s0.225-0.5,0.5-0.5s0.5-0.225,0.5-0.5
				S50.775,36,50.5,36S50,35.775,50,35.5s0.225-0.5,0.5-0.5s0.5-0.225,0.5-0.5S50.775,34,50.5,34s-0.725,0-1,0S49,34.225,49,34.5
				S48.775,35,48.5,35z"/>
		</g>
		<g>
			<path d="M1,34.5C1,34.775,0.775,35,0.5,35S0,35.225,0,35.5S0.225,36,0.5,36s0.725,0,1,0S2,35.775,2,35.5s0-0.725,0-1
				S1.775,34,1.5,34S1,34.225,1,34.5z"/>
		</g>
		<g>
			<path d="M5.5,35c0.275,0,0.725,0,1,0S7,34.775,7,34.5S6.775,34,6.5,34s-0.725,0-1,0S5,34.225,5,34.5C5,34.775,5.225,35,5.5,35z"
				/>
		</g>
		<g>
			<path d="M20,34.5c0-0.275,0-0.725,0-1S19.775,33,19.5,33S19,33.225,19,33.5s0,0.725,0,1s0.225,0.5,0.5,0.5S20,34.775,20,34.5z"/>
		</g>
		<g>
			<path d="M21,34.5c0,0.275,0.225,0.5,0.5,0.5s0.5-0.225,0.5-0.5s0-0.725,0-1S21.775,33,21.5,33S21,33.225,21,33.5
				S21,34.225,21,34.5z"/>
		</g>
		<g>
			<path d="M25,34.5c0-0.275,0-0.725,0-1s0-0.725,0-1S24.775,32,24.5,32s-0.725,0-1,0S23,32.225,23,32.5s0,0.725,0,1
				s0.225,0.5,0.5,0.5s0.5,0.225,0.5,0.5s0.225,0.5,0.5,0.5C24.775,35,25,34.775,25,34.5z"/>
		</g>
		<g>
			<path d="M33,34.5c0-0.275-0.225-0.5-0.5-0.5S32,34.225,32,34.5s0,0.725,0,1s0.225,0.5,0.5,0.5s0.725,0,1,0s0.5-0.225,0.5-0.5
				S33.775,35,33.5,35S33,34.775,33,34.5z"/>
		</g>
		<g>
			<circle cx="8.5" cy="33.5" r="0.5"/>
		</g>
		<g>
			<path d="M29.5,34c0.275,0,0.5,0.225,0.5,0.5s0,0.725,0,1s0.225,0.5,0.5,0.5s0.5-0.225,0.5-0.5s0-0.725,0-1s0.225-0.5,0.5-0.5
				s0.5-0.225,0.5-0.5s0-0.725,0-1S31.775,32,31.5,32s-0.725,0-1,0S30,32.225,30,32.5S29.775,33,29.5,33S29,33.225,29,33.5
				C29,33.775,29.225,34,29.5,34z"/>
		</g>
		<g>
			<path d="M10.5,33c0.275,0,0.5,0.225,0.5,0.5s0.225,0.5,0.5,0.5s0.725,0,1,0s0.5-0.225,0.5-0.5S12.775,33,12.5,33
				S12,32.775,12,32.5s0.225-0.5,0.5-0.5s0.5-0.225,0.5-0.5S12.775,31,12.5,31s-0.725,0-1,0S11,31.225,11,31.5S10.775,32,10.5,32
				s-0.725,0-1,0S9,32.225,9,32.5S9.225,33,9.5,33S10.225,33,10.5,33z"/>
		</g>
		<g>
			<circle cx="20.5" cy="32.5" r="0.5"/>
		</g>
		<g>
			<circle cx="7.5" cy="31.5" r="0.5"/>
		</g>
		<g>
			<path d="M14,31.5c0,0.275-0.225,0.5-0.5,0.5S13,32.225,13,32.5s0.225,0.5,0.5,0.5s0.725,0,1,0s0.725,0,1,0
				c0.275,0,0.5-0.225,0.5-0.5S15.775,32,15.5,32S15,31.775,15,31.5s0.225-0.5,0.5-0.5s0.725,0,1,0s0.5,0.225,0.5,0.5s0,0.725,0,1
				s0,0.725,0,1s0.225,0.5,0.5,0.5s0.5-0.225,0.5-0.5s0-0.725,0-1s0.225-0.5,0.5-0.5s0.5-0.225,0.5-0.5s0-0.725,0-1
				s0.225-0.5,0.5-0.5s0.5-0.225,0.5-0.5s0-0.725,0-1s0-0.725,0-1S19.775,27,19.5,27S19,27.225,19,27.5s0,0.725,0,1
				S18.775,29,18.5,29S18,29.225,18,29.5S17.775,30,17.5,30s-0.725,0-1,0s-0.725,0-1,0s-0.725,0-1,0s-0.725,0-1,0S13,30.225,13,30.5
				s0.225,0.5,0.5,0.5S14,31.225,14,31.5z"/>
		</g>
		<g>
			<circle cx="2.5" cy="30.5" r="0.5"/>
		</g>
		<g>
			<path d="M41.5,30c-0.275,0-0.5-0.225-0.5-0.5S40.775,29,40.5,29S40,29.225,40,29.5S39.775,30,39.5,30S39,30.225,39,30.5
				s0,0.725,0,1c0,0.275,0.225,0.5,0.5,0.5s0.5-0.225,0.5-0.5s0.225-0.5,0.5-0.5s0.725,0,1,0s0.5-0.225,0.5-0.5
				C42,30.225,41.775,30,41.5,30z"/>
		</g>
		<g>
			<circle cx="1.5" cy="29.5" r="0.5"/>
		</g>
		<g>
			<path d="M12.5,29c-0.275,0-0.5-0.225-0.5-0.5s0.225-0.5,0.5-0.5s0.725,0,1,0s0.725,0,1,0s0.725,0,1,0c0.275,0,0.5-0.225,0.5-0.5
				s0-0.725,0-1s0-0.725,0-1s0-0.725,0-1s0-0.725,0-1s0.225-0.5,0.5-0.5s0.725,0,1,0s0.5-0.225,0.5-0.5S17.775,22,17.5,22
				s-0.725,0-1,0s-0.725,0-1,0S15,22.225,15,22.5s0,0.725,0,1s0,0.725,0,1s0,0.725,0,1s0,0.725,0,1S14.775,27,14.5,27s-0.725,0-1,0
				S13,26.775,13,26.5s0.225-0.5,0.5-0.5s0.5-0.225,0.5-0.5S13.775,25,13.5,25S13,24.775,13,24.5S12.775,24,12.5,24
				S12,24.225,12,24.5S11.775,25,11.5,25S11,25.225,11,25.5S10.775,26,10.5,26S10,25.775,10,25.5s0.225-0.5,0.5-0.5
				s0.5-0.225,0.5-0.5s0-0.725,0-1s0-0.725,0-1S10.775,22,10.5,22S10,21.775,10,21.5S9.775,21,9.5,21S9,20.775,9,20.5
				S8.775,20,8.5,20S8,20.225,8,20.5s0,0.725,0,1S8.225,22,8.5,22S9,22.225,9,22.5S9.225,23,9.5,23s0.5,0.225,0.5,0.5
				S9.775,24,9.5,24s-0.725,0-1,0s-0.725,0-1,0s-0.725,0-1,0s-0.725,0-1,0s-0.725,0-1,0s-0.725,0-1,0S3,24.225,3,24.5
				S3.225,25,3.5,25S4,25.225,4,25.5S3.775,26,3.5,26S3,26.225,3,26.5S3.225,27,3.5,27S4,27.225,4,27.5s0,0.725,0,1S4.225,29,4.5,29
				S5,29.225,5,29.5S4.775,30,4.5,30S4,30.225,4,30.5S4.225,31,4.5,31S5,31.225,5,31.5S4.775,32,4.5,32S4,31.775,4,31.5
				S3.775,31,3.5,31S3,31.225,3,31.5S2.775,32,2.5,32s-0.725,0-1,0s-0.725,0-1,0S0,32.225,0,32.5S0.225,33,0.5,33s0.725,0,1,0
				S2,33.225,2,33.5S2.225,34,2.5,34s0.725,0,1,0s0.725,0,1,0S5,33.775,5,33.5S5.225,33,5.5,33s0.725,0,1,0S7,32.775,7,32.5
				S6.775,32,6.5,32S6,31.775,6,31.5S6.225,31,6.5,31S7,30.775,7,30.5S6.775,30,6.5,30S6,29.775,6,29.5S6.225,29,6.5,29s0.725,0,1,0
				S8,29.225,8,29.5S8.225,30,8.5,30S9,30.225,9,30.5S9.225,31,9.5,31s0.5-0.225,0.5-0.5s0-0.725,0-1S9.775,29,9.5,29
				S9,28.775,9,28.5s0-0.725,0-1S9.225,27,9.5,27s0.5,0.225,0.5,0.5s0,0.725,0,1s0.225,0.5,0.5,0.5s0.5,0.225,0.5,0.5
				s0.225,0.5,0.5,0.5s0.725,0,1,0s0.5-0.225,0.5-0.5C13,29.225,12.775,29,12.5,29z M8,27.5C8,27.775,7.775,28,7.5,28s-0.725,0-1,0
				s-0.725,0-1,0S5,27.775,5,27.5s0-0.725,0-1s0-0.725,0-1S5.225,25,5.5,25s0.725,0,1,0s0.725,0,1,0S8,25.225,8,25.5s0,0.725,0,1
				C8,26.775,8,27.225,8,27.5z"/>
		</g>
		<g>
			<circle cx="17.5" cy="28.5" r="0.5"/>
		</g>
		<g>
			<circle cx="41.5" cy="28.5" r="0.5"/>
		</g>
		<g>
			<circle cx="33.5" cy="27.5" r="0.5"/>
		</g>
		<g>
			<circle cx="6.5" cy="26.5" r="0.5"/>
		</g>
		<g>
			<circle cx="34.5" cy="26.5" r="0.5"/>
		</g>
		<g>
			<path d="M41,26.5c0-0.275-0.225-0.5-0.5-0.5S40,26.225,40,26.5s0,0.725,0,1s0.225,0.5,0.5,0.5s0.5-0.225,0.5-0.5
				S41,26.775,41,26.5z"/>
		</g>
		<g>
			<circle cx="46.5" cy="26.5" r="0.5"/>
		</g>
		<g>
			<circle cx="52.5" cy="26.5" r="0.5"/>
		</g>
		<g>
			<path d="M2.5,25c-0.275,0-0.725,0-1,0S1,24.775,1,24.5S0.775,24,0.5,24S0,24.225,0,24.5s0,0.725,0,1S0.225,26,0.5,26
				S1,26.225,1,26.5s0,0.725,0,1S1.225,28,1.5,28S2,27.775,2,27.5s0-0.725,0-1S2.225,26,2.5,26S3,25.775,3,25.5S2.775,25,2.5,25z"/>
		</g>
		<g>
			<path d="M17,25.5c0,0.275,0,0.725,0,1s0.225,0.5,0.5,0.5s0.5-0.225,0.5-0.5s0-0.725,0-1S17.775,25,17.5,25S17,25.225,17,25.5z"/>
		</g>
		<g>
			<path d="M36.5,26c0.275,0,0.725,0,1,0s0.5-0.225,0.5-0.5s0.225-0.5,0.5-0.5s0.5-0.225,0.5-0.5S38.775,24,38.5,24
				S38,23.775,38,23.5S37.775,23,37.5,23S37,23.225,37,23.5S36.775,24,36.5,24s-0.725,0-1,0S35,24.225,35,24.5s0,0.725,0,1
				s0.225,0.5,0.5,0.5S36.225,26,36.5,26z"/>
		</g>
		<g>
			<circle cx="39.5" cy="25.5" r="0.5"/>
		</g>
		<g>
			<path d="M19,24.5c0,0.275,0,0.725,0,1s0.225,0.5,0.5,0.5s0.5-0.225,0.5-0.5s0-0.725,0-1S19.775,24,19.5,24S19,24.225,19,24.5z"/>
		</g>
		<g>
			<path d="M2,23.5C2,23.225,2.225,23,2.5,23s0.725,0,1,0S4,22.775,4,22.5S3.775,22,3.5,22S3,21.775,3,21.5S2.775,21,2.5,21
				s-0.725,0-1,0S1,21.225,1,21.5S0.775,22,0.5,22S0,22.225,0,22.5S0.225,23,0.5,23S1,23.225,1,23.5S1.225,24,1.5,24
				S2,23.775,2,23.5z"/>
		</g>
		<g>
			<circle cx="13.5" cy="23.5" r="0.5"/>
		</g>
		<g>
			<path d="M5.5,23c0.275,0,0.725,0,1,0S7,22.775,7,22.5S6.775,22,6.5,22s-0.725,0-1,0S5,22.225,5,22.5C5,22.775,5.225,23,5.5,23z"
				/>
		</g>
		<g>
			<circle cx="12.5" cy="22.5" r="0.5"/>
		</g>
		<g>
			<circle cx="19.5" cy="22.5" r="0.5"/>
		</g>
		<g>
			<circle cx="36.5" cy="22.5" r="0.5"/>
		</g>
		<g>
			<circle cx="4.5" cy="21.5" r="0.5"/>
		</g>
		<g>
			<circle cx="11.5" cy="21.5" r="0.5"/>
		</g>
		<g>
			<circle cx="14.5" cy="21.5" r="0.5"/>
		</g>
		<g>
			<path d="M35.5,21c-0.275,0-0.5-0.225-0.5-0.5S34.775,20,34.5,20S34,19.775,34,19.5s0.225-0.5,0.5-0.5s0.725,0,1,0
				s0.5-0.225,0.5-0.5s0.225-0.5,0.5-0.5s0.725,0,1,0s0.5-0.225,0.5-0.5S37.775,17,37.5,17S37,16.775,37,16.5S36.775,16,36.5,16
				s-0.725,0-1,0s-0.725,0-1,0S34,16.225,34,16.5s0.225,0.5,0.5,0.5s0.5,0.225,0.5,0.5S34.775,18,34.5,18s-0.725,0-1,0s-0.725,0-1,0
				s-0.725,0-1,0S31,18.225,31,18.5S30.775,19,30.5,19S30,19.225,30,19.5s0.225,0.5,0.5,0.5s0.5,0.225,0.5,0.5s0.225,0.5,0.5,0.5
				s0.5-0.225,0.5-0.5s0.225-0.5,0.5-0.5s0.5,0.225,0.5,0.5s0,0.725,0,1s0.225,0.5,0.5,0.5s0.725,0,1,0s0.725,0,1,0
				s0.5-0.225,0.5-0.5S35.775,21,35.5,21z"/>
		</g>
		<g>
			<circle cx="0.5" cy="20.5" r="0.5"/>
		</g>
		<g>
			<path d="M4,20.5c0-0.275,0-0.725,0-1S4.225,19,4.5,19S5,18.775,5,18.5s0-0.725,0-1s0-0.725,0-1S4.775,16,4.5,16S4,15.775,4,15.5
				S4.225,15,4.5,15s0.725,0,1,0s0.725,0,1,0S7,14.775,7,14.5S6.775,14,6.5,14s-0.725,0-1,0S5,13.775,5,13.5s0-0.725,0-1
				S5.225,12,5.5,12S6,11.775,6,11.5S5.775,11,5.5,11S5,10.775,5,10.5S4.775,10,4.5,10S4,9.775,4,9.5S4.225,9,4.5,9S5,8.775,5,8.5
				S4.775,8,4.5,8s-0.725,0-1,0s-0.725,0-1,0s-0.725,0-1,0s-0.725,0-1,0S0,8.225,0,8.5S0.225,9,0.5,9s0.725,0,1,0s0.725,0,1,0
				S3,9.225,3,9.5s0,0.725,0,1S3.225,11,3.5,11S4,11.225,4,11.5s0,0.725,0,1S3.775,13,3.5,13S3,13.225,3,13.5s0,0.725,0,1
				s0,0.725,0,1s0,0.725,0,1S3.225,17,3.5,17S4,17.225,4,17.5S3.775,18,3.5,18s-0.725,0-1,0S2,18.225,2,18.5s0,0.725,0,1
				S2.225,20,2.5,20S3,20.225,3,20.5S3.225,21,3.5,21C3.775,21,4,20.775,4,20.5z"/>
		</g>
		<g>
			<path d="M5.5,20C5.225,20,5,20.225,5,20.5S5.225,21,5.5,21s0.725,0,1,0S7,20.775,7,20.5S6.775,20,6.5,20
				C6.225,20,5.775,20,5.5,20z"/>
		</g>
		<g>
			<circle cx="22.5" cy="20.5" r="0.5"/>
		</g>
		<g>
			<circle cx="24.5" cy="20.5" r="0.5"/>
		</g>
		<g>
			<path d="M28.5,20c-0.275,0-0.725,0-1,0S27,20.225,27,20.5s0.225,0.5,0.5,0.5s0.725,0,1,0s0.725,0,1,0s0.5-0.225,0.5-0.5
				S29.775,20,29.5,20S28.775,20,28.5,20z"/>
		</g>
		<g>
			<path d="M38.5,21c0.275,0,0.5-0.225,0.5-0.5s0.225-0.5,0.5-0.5s0.5-0.225,0.5-0.5s0.225-0.5,0.5-0.5s0.5-0.225,0.5-0.5
				S40.775,18,40.5,18s-0.725,0-1,0s-0.725,0-1,0S38,18.225,38,18.5s0,0.725,0,1S37.775,20,37.5,20s-0.725,0-1,0S36,20.225,36,20.5
				s0.225,0.5,0.5,0.5s0.5,0.225,0.5,0.5s0.225,0.5,0.5,0.5s0.5-0.225,0.5-0.5S38.225,21,38.5,21z"/>
		</g>
		<g>
			<path d="M43,20.5c0-0.275-0.225-0.5-0.5-0.5s-0.725,0-1,0S41,20.225,41,20.5S40.775,21,40.5,21S40,21.225,40,21.5
				s0.225,0.5,0.5,0.5s0.5,0.225,0.5,0.5S40.775,23,40.5,23S40,22.775,40,22.5S39.775,22,39.5,22s-0.725,0-1,0S38,22.225,38,22.5
				s0.225,0.5,0.5,0.5s0.5,0.225,0.5,0.5s0.225,0.5,0.5,0.5s0.725,0,1,0s0.725,0,1,0s0.5,0.225,0.5,0.5S41.775,25,41.5,25
				S41,25.225,41,25.5s0.225,0.5,0.5,0.5s0.725,0,1,0s0.5-0.225,0.5-0.5s0-0.725,0-1s0-0.725,0-1S42.775,23,42.5,23
				S42,22.775,42,22.5s0.225-0.5,0.5-0.5s0.5-0.225,0.5-0.5S43,20.775,43,20.5z"/>
		</g>
		<g>
			<circle cx="7.5" cy="19.5" r="0.5"/>
		</g>
		<g>
			<circle cx="6.5" cy="18.5" r="0.5"/>
		</g>
		<g>
			<path d="M27,18.5c0-0.275,0-0.725,0-1s0-0.725,0-1s0-0.725,0-1s0.225-0.5,0.5-0.5s0.725,0,1,0s0.5,0.225,0.5,0.5
				s0.225,0.5,0.5,0.5s0.5-0.225,0.5-0.5s0.225-0.5,0.5-0.5s0.5-0.225,0.5-0.5S30.775,14,30.5,14s-0.725,0-1,0s-0.725,0-1,0
				S28,13.775,28,13.5s0.225-0.5,0.5-0.5s0.725,0,1,0s0.5-0.225,0.5-0.5S29.775,12,29.5,12S29,11.775,29,11.5s0-0.725,0-1
				S28.775,10,28.5,10S28,9.775,28,9.5S28.225,9,28.5,9S29,9.225,29,9.5s0.225,0.5,0.5,0.5s0.5,0.225,0.5,0.5s0,0.725,0,1
				s0.225,0.5,0.5,0.5s0.5-0.225,0.5-0.5s0-0.725,0-1s0-0.725,0-1S31.225,9,31.5,9S32,8.775,32,8.5s0-0.725,0-1S31.775,7,31.5,7
				S31,6.775,31,6.5S30.775,6,30.5,6S30,6.225,30,6.5S29.775,7,29.5,7S29,6.775,29,6.5s0-0.725,0-1s0-0.725,0-1S29.225,4,29.5,4
				S30,3.775,30,3.5S29.775,3,29.5,3S29,2.775,29,2.5S28.775,2,28.5,2S28,2.225,28,2.5S27.775,3,27.5,3s-0.725,0-1,0
				S26,2.775,26,2.5S26.225,2,26.5,2S27,1.775,27,1.5S26.775,1,26.5,1s-0.725,0-1,0s-0.725,0-1,0S24,1.225,24,1.5S23.775,2,23.5,2
				S23,2.225,23,2.5s0,0.725,0,1S23.225,4,23.5,4S24,4.225,24,4.5S23.775,5,23.5,5S23,5.225,23,5.5S23.225,6,23.5,6S24,6.225,24,6.5
				S23.775,7,23.5,7S23,7.225,23,7.5S23.225,8,23.5,8S24,8.225,24,8.5S24.225,9,24.5,9S25,9.225,25,9.5s0.225,0.5,0.5,0.5
				S26,9.775,26,9.5S26.225,9,26.5,9S27,9.225,27,9.5S26.775,10,26.5,10S26,10.225,26,10.5S25.775,11,25.5,11S25,11.225,25,11.5
				s0.225,0.5,0.5,0.5s0.725,0,1,0s0.5,0.225,0.5,0.5S26.775,13,26.5,13S26,13.225,26,13.5S25.775,14,25.5,14S25,14.225,25,14.5
				s0.225,0.5,0.5,0.5s0.5,0.225,0.5,0.5s0,0.725,0,1s0,0.725,0,1s0,0.725,0,1s0,0.725,0,1s0.225,0.5,0.5,0.5s0.5-0.225,0.5-0.5
				C27,19.225,27,18.775,27,18.5z M26.5,8c-0.275,0-0.725,0-1,0S25,7.775,25,7.5s0-0.725,0-1s0-0.725,0-1S25.225,5,25.5,5
				s0.725,0,1,0s0.725,0,1,0S28,5.225,28,5.5s0,0.725,0,1s0,0.725,0,1S27.775,8,27.5,8S26.775,8,26.5,8z"/>
		</g>
		<g>
			<path d="M29.5,18c-0.275,0-0.725,0-1,0S28,18.225,28,18.5s0.225,0.5,0.5,0.5s0.725,0,1,0s0.5-0.225,0.5-0.5
				C30,18.225,29.775,18,29.5,18z"/>
		</g>
		<g>
			<path d="M8.5,17C8.225,17,8,17.225,8,17.5S8.225,18,8.5,18S9,18.225,9,18.5S9.225,19,9.5,19s0.5,0.225,0.5,0.5s0.225,0.5,0.5,0.5
				s0.5-0.225,0.5-0.5s0.225-0.5,0.5-0.5s0.5-0.225,0.5-0.5s0-0.725,0-1S11.775,17,11.5,17S11,17.225,11,17.5S10.775,18,10.5,18
				S10,17.775,10,17.5S9.775,17,9.5,17C9.225,17,8.775,17,8.5,17z"/>
		</g>
		<g>
			<path d="M43.5,17c-0.275,0-0.725,0-1,0s-0.725,0-1,0S41,17.225,41,17.5s0.225,0.5,0.5,0.5s0.5,0.225,0.5,0.5s0.225,0.5,0.5,0.5
				s0.5-0.225,0.5-0.5s0.225-0.5,0.5-0.5s0.5-0.225,0.5-0.5S43.775,17,43.5,17z"/>
		</g>
		<g>
			<path d="M2,16.5c0-0.275,0-0.725,0-1s0-0.725,0-1s0-0.725,0-1S2.225,13,2.5,13S3,12.775,3,12.5s0-0.725,0-1S2.775,11,2.5,11
				S2,10.775,2,10.5S1.775,10,1.5,10s-0.725,0-1,0S0,10.225,0,10.5s0,0.725,0,1s0,0.725,0,1S0.225,13,0.5,13S1,13.225,1,13.5
				s0,0.725,0,1s0,0.725,0,1S0.775,16,0.5,16S0,16.225,0,16.5s0,0.725,0,1s0,0.725,0,1S0.225,19,0.5,19S1,18.775,1,18.5
				S1.225,18,1.5,18S2,17.775,2,17.5S2,16.775,2,16.5z"/>
		</g>
		<g>
			<circle cx="6.5" cy="16.5" r="0.5"/>
		</g>
		<g>
			<path d="M23,16.5c0,0.275,0,0.725,0,1s0.225,0.5,0.5,0.5s0.5,0.225,0.5,0.5s0.225,0.5,0.5,0.5s0.5-0.225,0.5-0.5s0-0.725,0-1
				S24.775,17,24.5,17S24,16.775,24,16.5S23.775,16,23.5,16S23,16.225,23,16.5z"/>
		</g>
		<g>
			<path d="M31,16.5c0-0.275-0.225-0.5-0.5-0.5S30,16.225,30,16.5s0,0.725,0,1s0.225,0.5,0.5,0.5s0.5-0.225,0.5-0.5
				S31,16.775,31,16.5z"/>
		</g>
		<g>
			<circle cx="38.5" cy="16.5" r="0.5"/>
		</g>
		<g>
			<circle cx="24.5" cy="15.5" r="0.5"/>
		</g>
		<g>
			<circle cx="52.5" cy="15.5" r="0.5"/>
		</g>
		<g>
			<circle cx="11.5" cy="14.5" r="0.5"/>
		</g>
		<g>
			<path d="M13,14.5c0,0.275,0.225,0.5,0.5,0.5s0.5,0.225,0.5,0.5S13.775,16,13.5,16s-0.725,0-1,0S12,16.225,12,16.5
				s0.225,0.5,0.5,0.5s0.725,0,1,0s0.725,0,1,0s0.725,0,1,0c0.275,0,0.5-0.225,0.5-0.5S15.775,16,15.5,16S15,15.775,15,15.5
				s0.225-0.5,0.5-0.5s0.725,0,1,0s0.5,0.225,0.5,0.5s0,0.725,0,1s0.225,0.5,0.5,0.5s0.5,0.225,0.5,0.5s0,0.725,0,1
				S17.775,19,17.5,19S17,18.775,17,18.5s0-0.725,0-1S16.775,17,16.5,17S16,17.225,16,17.5S15.775,18,15.5,18s-0.725,0-1,0
				S14,18.225,14,18.5S13.775,19,13.5,19s-0.725,0-1,0S12,19.225,12,19.5s0.225,0.5,0.5,0.5s0.725,0,1,0s0.725,0,1,0
				s0.5-0.225,0.5-0.5s0.225-0.5,0.5-0.5s0.5,0.225,0.5,0.5s0,0.725,0,1s0.225,0.5,0.5,0.5s0.725,0,1,0s0.5,0.225,0.5,0.5
				s0.225,0.5,0.5,0.5s0.5-0.225,0.5-0.5s0-0.725,0-1s0-0.725,0-1s0.225-0.5,0.5-0.5s0.5-0.225,0.5-0.5S19.775,18,19.5,18
				S19,17.775,19,17.5s0-0.725,0-1s0.225-0.5,0.5-0.5s0.725,0,1,0s0.5,0.225,0.5,0.5s0,0.725,0,1s0,0.725,0,1S20.775,19,20.5,19
				S20,19.225,20,19.5s0.225,0.5,0.5,0.5s0.725,0,1,0s0.5-0.225,0.5-0.5s0-0.725,0-1s0-0.725,0-1s0-0.725,0-1s0-0.725,0-1
				S21.775,15,21.5,15S21,14.775,21,14.5s0.225-0.5,0.5-0.5s0.5-0.225,0.5-0.5S21.775,13,21.5,13s-0.725,0-1,0S20,12.775,20,12.5
				S19.775,12,19.5,12s-0.725,0-1,0S18,11.775,18,11.5S17.775,11,17.5,11S17,11.225,17,11.5S16.775,12,16.5,12S16,11.775,16,11.5
				S15.775,11,15.5,11S15,10.775,15,10.5S14.775,10,14.5,10S14,10.225,14,10.5S13.775,11,13.5,11S13,10.775,13,10.5
				S12.775,10,12.5,10S12,9.775,12,9.5s0-0.725,0-1S12.225,8,12.5,8s0.725,0,1,0S14,7.775,14,7.5S13.775,7,13.5,7S13,6.775,13,6.5
				S12.775,6,12.5,6S12,6.225,12,6.5S11.775,7,11.5,7S11,7.225,11,7.5s0,0.725,0,1S10.775,9,10.5,9S10,9.225,10,9.5s0,0.725,0,1
				s0.225,0.5,0.5,0.5s0.5,0.225,0.5,0.5s0.225,0.5,0.5,0.5s0.5,0.225,0.5,0.5s0,0.725,0,1s0.225,0.5,0.5,0.5
				C12.775,14,13,14.225,13,14.5z M20,14.5c0,0.275-0.225,0.5-0.5,0.5s-0.725,0-1,0S18,14.775,18,14.5s0.225-0.5,0.5-0.5
				s0.725,0,1,0S20,14.225,20,14.5z M16.5,13c0.275,0,0.5,0.225,0.5,0.5S16.775,14,16.5,14S16,13.775,16,13.5
				C16,13.225,16.225,13,16.5,13z M13,12.5c0-0.275,0.225-0.5,0.5-0.5s0.725,0,1,0s0.5,0.225,0.5,0.5S14.775,13,14.5,13
				s-0.725,0-1,0S13,12.775,13,12.5z"/>
		</g>
		<g>
			<circle cx="23.5" cy="14.5" r="0.5"/>
		</g>
		<g>
			<path d="M32,14.5c0,0.275,0.225,0.5,0.5,0.5s0.725,0,1,0s0.725,0,1,0s0.5-0.225,0.5-0.5S34.775,14,34.5,14S34,13.775,34,13.5
				s0.225-0.5,0.5-0.5s0.5-0.225,0.5-0.5s0-0.725,0-1s0-0.725,0-1S34.775,10,34.5,10s-0.725,0-1,0S33,9.775,33,9.5S32.775,9,32.5,9
				S32,9.225,32,9.5s0,0.725,0,1s0,0.725,0,1s0.225,0.5,0.5,0.5s0.5,0.225,0.5,0.5S32.775,13,32.5,13S32,12.775,32,12.5
				S31.775,12,31.5,12S31,12.225,31,12.5s0,0.725,0,1s0.225,0.5,0.5,0.5S32,14.225,32,14.5z"/>
		</g>
		<g>
			<circle cx="36.5" cy="14.5" r="0.5"/>
		</g>
		<g>
			<path d="M39.5,14c-0.275,0-0.5,0.225-0.5,0.5s0,0.725,0,1c0,0.275,0.225,0.5,0.5,0.5s0.725,0,1,0s0.5-0.225,0.5-0.5
				s0.225-0.5,0.5-0.5s0.5-0.225,0.5-0.5s0.225-0.5,0.5-0.5s0.5-0.225,0.5-0.5s0-0.725,0-1s0.225-0.5,0.5-0.5s0.5-0.225,0.5-0.5
				S43.775,11,43.5,11s-0.725,0-1,0S42,11.225,42,11.5S41.775,12,41.5,12S41,12.225,41,12.5S40.775,13,40.5,13S40,13.225,40,13.5
				C40,13.775,39.775,14,39.5,14z"/>
		</g>
		<g>
			<path d="M25,13.5c0-0.275,0-0.725,0-1S24.775,12,24.5,12S24,12.225,24,12.5s0,0.725,0,1s0.225,0.5,0.5,0.5
				C24.775,14,25,13.775,25,13.5z"/>
		</g>
		<g>
			<circle cx="35.5" cy="13.5" r="0.5"/>
		</g>
		<g>
			<path d="M45,13.5c0-0.275-0.225-0.5-0.5-0.5S44,13.225,44,13.5S43.775,14,43.5,14S43,14.225,43,14.5s0.225,0.5,0.5,0.5
				s0.725,0,1,0s0.5-0.225,0.5-0.5C45,14.225,45,13.775,45,13.5z"/>
		</g>
		<g>
			<path d="M47,13.5c0,0.275,0.225,0.5,0.5,0.5s0.5-0.225,0.5-0.5s0.225-0.5,0.5-0.5s0.5-0.225,0.5-0.5S48.775,12,48.5,12
				s-0.725,0-1,0S47,12.225,47,12.5S47,13.225,47,13.5z"/>
		</g>
		<g>
			<path d="M38.5,12c-0.275,0-0.725,0-1,0s-0.725,0-1,0S36,12.225,36,12.5s0.225,0.5,0.5,0.5s0.5,0.225,0.5,0.5s0.225,0.5,0.5,0.5
				s0.5-0.225,0.5-0.5s0.225-0.5,0.5-0.5s0.725,0,1,0s0.5-0.225,0.5-0.5s0.225-0.5,0.5-0.5s0.5-0.225,0.5-0.5s0.225-0.5,0.5-0.5
				s0.5-0.225,0.5-0.5S41.775,10,41.5,10s-0.725,0-1,0S40,10.225,40,10.5S39.775,11,39.5,11S39,11.225,39,11.5S38.775,12,38.5,12z"
				/>
		</g>
		<g>
			<path d="M45,12.5c0,0.275,0.225,0.5,0.5,0.5s0.5-0.225,0.5-0.5s0.225-0.5,0.5-0.5s0.5-0.225,0.5-0.5S46.775,11,46.5,11
				s-0.725,0-1,0S45,11.225,45,11.5S45,12.225,45,12.5z"/>
		</g>
		<g>
			<path d="M52,12.5c0,0.275,0,0.725,0,1s0.225,0.5,0.5,0.5s0.5-0.225,0.5-0.5s0-0.725,0-1S52.775,12,52.5,12S52,12.225,52,12.5z"/>
		</g>
		<g>
			<path d="M7,11.5C7,11.775,6.775,12,6.5,12S6,12.225,6,12.5S6.225,13,6.5,13S7,13.225,7,13.5S7.225,14,7.5,14S8,14.225,8,14.5
				s0,0.725,0,1C8,15.775,8.225,16,8.5,16s0.725,0,1,0s0.5,0.225,0.5,0.5s0.225,0.5,0.5,0.5s0.5-0.225,0.5-0.5s0-0.725,0-1
				S10.775,15,10.5,15S10,14.775,10,14.5S9.775,14,9.5,14S9,13.775,9,13.5S9.225,13,9.5,13s0.5-0.225,0.5-0.5S9.775,12,9.5,12
				s-0.725,0-1,0S8,11.775,8,11.5S7.775,11,7.5,11S7,11.225,7,11.5z"/>
		</g>
		<g>
			<path d="M21.5,12c0.275,0,0.5-0.225,0.5-0.5S21.775,11,21.5,11S21,10.775,21,10.5S20.775,10,20.5,10S20,10.225,20,10.5
				s0,0.725,0,1s0.225,0.5,0.5,0.5C20.775,12,21.225,12,21.5,12z"/>
		</g>
		<g>
			<circle cx="6.5" cy="10.5" r="0.5"/>
		</g>
		<g>
			<path d="M8,10.5C8,10.775,8.225,11,8.5,11S9,10.775,9,10.5s0-0.725,0-1s0-0.725,0-1S8.775,8,8.5,8s-0.725,0-1,0s-0.725,0-1,0
				S6,8.225,6,8.5S6.225,9,6.5,9S7,9.225,7,9.5S7.225,10,7.5,10S8,10.225,8,10.5z"/>
		</g>
		<g>
			<path d="M19,10.5c0-0.275,0-0.725,0-1S18.775,9,18.5,9S18,9.225,18,9.5s0,0.725,0,1s0.225,0.5,0.5,0.5
				C18.775,11,19,10.775,19,10.5z"/>
		</g>
		<g>
			<circle cx="22.5" cy="10.5" r="0.5"/>
		</g>
		<g>
			<circle cx="44.5" cy="10.5" r="0.5"/>
		</g>
		<g>
			<circle cx="13.5" cy="9.5" r="0.5"/>
		</g>
		<g>
			<circle cx="15.5" cy="9.5" r="0.5"/>
		</g>
		<g>
			<path d="M43.5,10c0.275,0,0.5-0.225,0.5-0.5S43.775,9,43.5,9s-0.725,0-1,0S42,9.225,42,9.5s0.225,0.5,0.5,0.5
				C42.775,10,43.225,10,43.5,10z"/>
		</g>
		<g>
			<circle cx="46.5" cy="9.5" r="0.5"/>
		</g>
		<g>
			<circle cx="45.5" cy="8.5" r="0.5"/>
		</g>
		<g>
			<circle cx="47.5" cy="8.5" r="0.5"/>
		</g>
		<g>
			<circle cx="49.5" cy="8.5" r="0.5"/>
		</g>
		<g>
			<path d="M52,8.5C52,8.225,51.775,8,51.5,8S51,8.225,51,8.5S50.775,9,50.5,9S50,9.225,50,9.5S49.775,10,49.5,10s-0.725,0-1,0
				s-0.725,0-1,0S47,10.225,47,10.5s0.225,0.5,0.5,0.5s0.725,0,1,0s0.725,0,1,0s0.5,0.225,0.5,0.5s0,0.725,0,1s0,0.725,0,1
				S49.775,14,49.5,14S49,14.225,49,14.5s0,0.725,0,1c0,0.275-0.225,0.5-0.5,0.5s-0.725,0-1,0S47,15.775,47,15.5S46.775,15,46.5,15
				s-0.725,0-1,0S45,15.225,45,15.5s0.225,0.5,0.5,0.5s0.5,0.225,0.5,0.5s0.225,0.5,0.5,0.5s0.725,0,1,0s0.5,0.225,0.5,0.5
				s0,0.725,0,1s0.225,0.5,0.5,0.5s0.725,0,1,0s0.5,0.225,0.5,0.5s0,0.725,0,1s0,0.725,0,1s0.225,0.5,0.5,0.5s0.5,0.225,0.5,0.5
				S50.775,23,50.5,23S50,22.775,50,22.5S49.775,22,49.5,22S49,22.225,49,22.5s0,0.725,0,1S48.775,24,48.5,24s-0.725,0-1,0
				s-0.725,0-1,0S46,23.775,46,23.5s0.225-0.5,0.5-0.5s0.5-0.225,0.5-0.5s0.225-0.5,0.5-0.5s0.5-0.225,0.5-0.5s0.225-0.5,0.5-0.5
				s0.5-0.225,0.5-0.5S48.775,20,48.5,20S48,19.775,48,19.5S47.775,19,47.5,19S47,19.225,47,19.5S46.775,20,46.5,20
				S46,19.775,46,19.5s0-0.725,0-1S45.775,18,45.5,18s-0.725,0-1,0S44,18.225,44,18.5s0,0.725,0,1s0,0.725,0,1s0,0.725,0,1
				S43.775,22,43.5,22S43,22.225,43,22.5s0.225,0.5,0.5,0.5s0.725,0,1,0s0.5,0.225,0.5,0.5S44.775,24,44.5,24S44,24.225,44,24.5
				s0,0.725,0,1s0,0.725,0,1s0,0.725,0,1S43.775,28,43.5,28S43,28.225,43,28.5s0.225,0.5,0.5,0.5s0.725,0,1,0s0.5,0.225,0.5,0.5
				s0,0.725,0,1s0,0.725,0,1S44.775,32,44.5,32S44,31.775,44,31.5S43.775,31,43.5,31s-0.725,0-1,0S42,31.225,42,31.5
				S41.775,32,41.5,32S41,32.225,41,32.5s0,0.725,0,1s0.225,0.5,0.5,0.5s0.725,0,1,0s0.725,0,1,0s0.5-0.225,0.5-0.5
				s0.225-0.5,0.5-0.5s0.5,0.225,0.5,0.5S44.775,34,44.5,34S44,34.225,44,34.5s0.225,0.5,0.5,0.5s0.725,0,1,0s0.725,0,1,0
				s0.725,0,1,0s0.5-0.225,0.5-0.5S47.775,34,47.5,34S47,33.775,47,33.5s0.225-0.5,0.5-0.5s0.5,0.225,0.5,0.5s0.225,0.5,0.5,0.5
				s0.5-0.225,0.5-0.5s0.225-0.5,0.5-0.5s0.725,0,1,0s0.725,0,1,0s0.725,0,1,0s0.5-0.225,0.5-0.5s0-0.725,0-1S52.775,31,52.5,31
				S52,31.225,52,31.5S51.775,32,51.5,32s-0.725,0-1,0s-0.725,0-1,0S49,31.775,49,31.5S48.775,31,48.5,31S48,30.775,48,30.5
				s0.225-0.5,0.5-0.5s0.5,0.225,0.5,0.5s0.225,0.5,0.5,0.5s0.5-0.225,0.5-0.5s0.225-0.5,0.5-0.5s0.725,0,1,0s0.725,0,1,0
				s0.5-0.225,0.5-0.5S52.775,29,52.5,29s-0.725,0-1,0S51,28.775,51,28.5S50.775,28,50.5,28S50,28.225,50,28.5S49.775,29,49.5,29
				S49,28.775,49,28.5s0.225-0.5,0.5-0.5s0.5-0.225,0.5-0.5s0.225-0.5,0.5-0.5s0.5-0.225,0.5-0.5S50.775,26,50.5,26s-0.725,0-1,0
				S49,25.775,49,25.5s0.225-0.5,0.5-0.5s0.5-0.225,0.5-0.5s0.225-0.5,0.5-0.5s0.5,0.225,0.5,0.5s0,0.725,0,1s0.225,0.5,0.5,0.5
				s0.5-0.225,0.5-0.5s0-0.725,0-1s0.225-0.5,0.5-0.5s0.5-0.225,0.5-0.5S52.775,23,52.5,23S52,22.775,52,22.5s0-0.725,0-1
				S51.775,21,51.5,21S51,20.775,51,20.5s0-0.725,0-1s0.225-0.5,0.5-0.5s0.5-0.225,0.5-0.5s0-0.725,0-1s0-0.725,0-1
				S51.775,16,51.5,16S51,15.775,51,15.5s0-0.725,0-1s0-0.725,0-1s0-0.725,0-1s0-0.725,0-1s0-0.725,0-1s0.225-0.5,0.5-0.5
				s0.5,0.225,0.5,0.5s0.225,0.5,0.5,0.5s0.5-0.225,0.5-0.5s0-0.725,0-1S52.775,9,52.5,9S52,8.775,52,8.5z M47,31.5
				c0,0.275-0.225,0.5-0.5,0.5S46,31.775,46,31.5s0.225-0.5,0.5-0.5S47,31.225,47,31.5z M48,25.5c0,0.275,0,0.725,0,1s0,0.725,0,1
				S47.775,28,47.5,28s-0.725,0-1,0s-0.725,0-1,0S45,27.775,45,27.5s0-0.725,0-1s0-0.725,0-1s0.225-0.5,0.5-0.5s0.725,0,1,0
				s0.725,0,1,0S48,25.225,48,25.5z M49.5,18c-0.275,0-0.5-0.225-0.5-0.5s0.225-0.5,0.5-0.5s0.5,0.225,0.5,0.5
				C50,17.775,49.775,18,49.5,18z"/>
		</g>
		<g>
			<circle cx="15.5" cy="7.5" r="0.5"/>
		</g>
		<g>
			<path d="M22,7.5C22,7.225,21.775,7,21.5,7S21,7.225,21,7.5S20.775,8,20.5,8S20,8.225,20,8.5S20.225,9,20.5,9s0.725,0,1,0
				s0.725,0,1,0S23,8.775,23,8.5S22.775,8,22.5,8S22,7.775,22,7.5z"/>
		</g>
		<g>
			<path d="M37,7.5C37,7.775,36.775,8,36.5,8s-0.725,0-1,0s-0.725,0-1,0S34,7.775,34,7.5S33.775,7,33.5,7S33,7.225,33,7.5
				s0,0.725,0,1S33.225,9,33.5,9s0.725,0,1,0s0.725,0,1,0s0.725,0,1,0S37,9.225,37,9.5S36.775,10,36.5,10S36,10.225,36,10.5
				s0.225,0.5,0.5,0.5s0.725,0,1,0s0.725,0,1,0s0.5-0.225,0.5-0.5S38.775,10,38.5,10S38,9.775,38,9.5s0-0.725,0-1s0-0.725,0-1
				S37.775,7,37.5,7S37,7.225,37,7.5z"/>
		</g>
		<g>
			<path d="M1.5,7c0.275,0,0.725,0,1,0s0.725,0,1,0s0.725,0,1,0s0.725,0,1,0s0.725,0,1,0S7,6.775,7,6.5s0-0.725,0-1s0-0.725,0-1
				s0-0.725,0-1s0-0.725,0-1s0-0.725,0-1s0-0.725,0-1S6.775,0,6.5,0s-0.725,0-1,0s-0.725,0-1,0s-0.725,0-1,0s-0.725,0-1,0
				s-0.725,0-1,0s-0.725,0-1,0S0,0.225,0,0.5s0,0.725,0,1s0,0.725,0,1s0,0.725,0,1s0,0.725,0,1s0,0.725,0,1s0,0.725,0,1
				S0.225,7,0.5,7S1.225,7,1.5,7z M1,5.5c0-0.275,0-0.725,0-1s0-0.725,0-1s0-0.725,0-1s0-0.725,0-1S1.225,1,1.5,1s0.725,0,1,0
				s0.725,0,1,0s0.725,0,1,0s0.725,0,1,0S6,1.225,6,1.5s0,0.725,0,1s0,0.725,0,1s0,0.725,0,1s0,0.725,0,1S5.775,6,5.5,6
				s-0.725,0-1,0s-0.725,0-1,0s-0.725,0-1,0s-0.725,0-1,0S1,5.775,1,5.5z"/>
		</g>
		<g>
			<circle cx="10.5" cy="6.5" r="0.5"/>
		</g>
		<g>
			<circle cx="14.5" cy="6.5" r="0.5"/>
		</g>
		<g>
			<path d="M16,6.5C16,6.775,16.225,7,16.5,7S17,6.775,17,6.5s0-0.725,0-1S17.225,5,17.5,5s0.725,0,1,0S19,4.775,19,4.5
				S18.775,4,18.5,4S18,3.775,18,3.5s0-0.725,0-1S17.775,2,17.5,2S17,1.775,17,1.5s0-0.725,0-1S16.775,0,16.5,0S16,0.225,16,0.5
				S15.775,1,15.5,1s-0.725,0-1,0S14,1.225,14,1.5S13.775,2,13.5,2S13,2.225,13,2.5S13.225,3,13.5,3s0.725,0,1,0S15,2.775,15,2.5
				S15.225,2,15.5,2S16,2.225,16,2.5s0,0.725,0,1S15.775,4,15.5,4S15,4.225,15,4.5s0,0.725,0,1S15.225,6,15.5,6
				C15.775,6,16,6.225,16,6.5z"/>
		</g>
		<g>
			<circle cx="18.5" cy="6.5" r="0.5"/>
		</g>
		<g>
			<circle cx="22.5" cy="6.5" r="0.5"/>
		</g>
		<g>
			<circle cx="26.5" cy="6.5" r="0.5"/>
		</g>
		<g>
			<circle cx="32.5" cy="6.5" r="0.5"/>
		</g>
		<g>
			<circle cx="34.5" cy="6.5" r="0.5"/>
		</g>
		<g>
			<circle cx="36.5" cy="6.5" r="0.5"/>
		</g>
		<g>
			<circle cx="44.5" cy="6.5" r="0.5"/>
		</g>
		<g>
			<path d="M21,5.5C21,5.225,20.775,5,20.5,5S20,5.225,20,5.5s0,0.725,0,1S20.225,7,20.5,7S21,6.775,21,6.5
				C21,6.225,21,5.775,21,5.5z"/>
		</g>
		<g>
			<path d="M3.5,5c0.275,0,0.725,0,1,0S5,4.775,5,4.5s0-0.725,0-1s0-0.725,0-1S4.775,2,4.5,2s-0.725,0-1,0s-0.725,0-1,0
				S2,2.225,2,2.5s0,0.725,0,1s0,0.725,0,1S2.225,5,2.5,5S3.225,5,3.5,5z"/>
		</g>
		<g>
			<path d="M10,4.5C10,4.225,9.775,4,9.5,4S9,4.225,9,4.5S8.775,5,8.5,5S8,5.225,8,5.5s0,0.725,0,1S8.225,7,8.5,7S9,6.775,9,6.5
				S9.225,6,9.5,6S10,5.775,10,5.5C10,5.225,10,4.775,10,4.5z"/>
		</g>
		<g>
			<path d="M22,4.5c0-0.275,0-0.725,0-1S21.775,3,21.5,3S21,3.225,21,3.5s0,0.725,0,1S21.225,5,21.5,5C21.775,5,22,4.775,22,4.5z"/>
		</g>
		<g>
			<circle cx="8.5" cy="3.5" r="0.5"/>
		</g>
		<g>
			<path d="M12,3.5c0,0.275,0,0.725,0,1S12.225,5,12.5,5s0.725,0,1,0S14,4.775,14,4.5S13.775,4,13.5,4S13,3.775,13,3.5
				S12.775,3,12.5,3C12.225,3,12,3.225,12,3.5z"/>
		</g>
		<g>
			<circle cx="19.5" cy="3.5" r="0.5"/>
		</g>
		<g>
			<circle cx="44.5" cy="3.5" r="0.5"/>
		</g>
		<g>
			<circle cx="11.5" cy="2.5" r="0.5"/>
		</g>
		<g>
			<path d="M32.5,3C32.775,3,33,3.225,33,3.5S32.775,4,32.5,4s-0.725,0-1,0S31,4.225,31,4.5S31.225,5,31.5,5s0.725,0,1,0
				S33,5.225,33,5.5S33.225,6,33.5,6S34,5.775,34,5.5s0-0.725,0-1S34.225,4,34.5,4s0.725,0,1,0S36,4.225,36,4.5S36.225,5,36.5,5
				s0.725,0,1,0S38,4.775,38,4.5S38.225,4,38.5,4S39,3.775,39,3.5S38.775,3,38.5,3s-0.725,0-1,0S37,2.775,37,2.5s0-0.725,0-1
				S37.225,1,37.5,1S38,0.775,38,0.5S37.775,0,37.5,0s-0.725,0-1,0s-0.725,0-1,0S35,0.225,35,0.5S34.775,1,34.5,1S34,1.225,34,1.5
				S34.225,2,34.5,2S35,2.225,35,2.5S34.775,3,34.5,3S34,2.775,34,2.5S33.775,2,33.5,2s-0.725,0-1,0S32,2.225,32,2.5
				S32.225,3,32.5,3z"/>
		</g>
		<g>
			<path d="M49.5,2c-0.275,0-0.725,0-1,0S48,2.225,48,2.5s0,0.725,0,1s0,0.725,0,1S48.225,5,48.5,5s0.725,0,1,0s0.725,0,1,0
				S51,4.775,51,4.5s0-0.725,0-1s0-0.725,0-1S50.775,2,50.5,2S49.775,2,49.5,2z"/>
		</g>
		<g>
			<path d="M9.5,2C9.775,2,10,1.775,10,1.5S9.775,1,9.5,1s-0.725,0-1,0S8,1.225,8,1.5S8.225,2,8.5,2S9.225,2,9.5,2z"/>
		</g>
		<g>
			<path d="M19,1.5C19,1.225,19.225,1,19.5,1S20,0.775,20,0.5S19.775,0,19.5,0s-0.725,0-1,0S18,0.225,18,0.5s0,0.725,0,1
				S18.225,2,18.5,2C18.775,2,19,1.775,19,1.5z"/>
		</g>
		<g>
			<path d="M22,1.5c0-0.275,0-0.725,0-1S21.775,0,21.5,0S21,0.225,21,0.5s0,0.725,0,1S21.225,2,21.5,2C21.775,2,22,1.775,22,1.5z"/>
		</g>
		<g>
			<path d="M38.5,2C38.775,2,39,2.225,39,2.5S39.225,3,39.5,3s0.725,0,1,0S41,3.225,41,3.5S41.225,4,41.5,4S42,4.225,42,4.5
				S41.775,5,41.5,5S41,4.775,41,4.5S40.775,4,40.5,4S40,4.225,40,4.5S39.775,5,39.5,5s-0.725,0-1,0S38,5.225,38,5.5s0,0.725,0,1
				S38.225,7,38.5,7S39,6.775,39,6.5S39.225,6,39.5,6S40,6.225,40,6.5S39.775,7,39.5,7S39,7.225,39,7.5S39.225,8,39.5,8s0.725,0,1,0
				s0.725,0,1,0S42,7.775,42,7.5S41.775,7,41.5,7S41,6.775,41,6.5S41.225,6,41.5,6S42,6.225,42,6.5S42.225,7,42.5,7S43,6.775,43,6.5
				s0-0.725,0-1s0-0.725,0-1s0-0.725,0-1S42.775,3,42.5,3S42,2.775,42,2.5S42.225,2,42.5,2S43,2.225,43,2.5S43.225,3,43.5,3
				S44,2.775,44,2.5s0-0.725,0-1S43.775,1,43.5,1S43,0.775,43,0.5S42.775,0,42.5,0S42,0.225,42,0.5S41.775,1,41.5,1S41,1.225,41,1.5
				S40.775,2,40.5,2S40,1.775,40,1.5S40.225,1,40.5,1S41,0.775,41,0.5S40.775,0,40.5,0s-0.725,0-1,0S39,0.225,39,0.5
				S38.775,1,38.5,1S38,1.225,38,1.5S38.225,2,38.5,2z"/>
		</g>
		<g>
			<path d="M28.5,1c0.275,0,0.725,0,1,0S30,1.225,30,1.5s0,0.725,0,1S30.225,3,30.5,3S31,2.775,31,2.5S31.225,2,31.5,2
				S32,1.775,32,1.5S31.775,1,31.5,1S31,0.775,31,0.5S30.775,0,30.5,0s-0.725,0-1,0s-0.725,0-1,0s-0.725,0-1,0S27,0.225,27,0.5
				S27.225,1,27.5,1C27.775,1,28.225,1,28.5,1z"/>
		</g>
		<g>
			<path d="M52.5,0c-0.275,0-0.725,0-1,0s-0.725,0-1,0s-0.725,0-1,0s-0.725,0-1,0s-0.725,0-1,0s-0.725,0-1,0S46,0.225,46,0.5
				s0,0.725,0,1s0,0.725,0,1s0,0.725,0,1s0,0.725,0,1s0,0.725,0,1s0,0.725,0,1S46.225,7,46.5,7s0.725,0,1,0s0.725,0,1,0s0.725,0,1,0
				s0.725,0,1,0s0.725,0,1,0s0.725,0,1,0S53,6.775,53,6.5s0-0.725,0-1s0-0.725,0-1s0-0.725,0-1s0-0.725,0-1s0-0.725,0-1s0-0.725,0-1
				S52.775,0,52.5,0z M52,1.5c0,0.275,0,0.725,0,1s0,0.725,0,1s0,0.725,0,1s0,0.725,0,1S51.775,6,51.5,6s-0.725,0-1,0s-0.725,0-1,0
				s-0.725,0-1,0s-0.725,0-1,0S47,5.775,47,5.5s0-0.725,0-1s0-0.725,0-1s0-0.725,0-1s0-0.725,0-1S47.225,1,47.5,1s0.725,0,1,0
				s0.725,0,1,0s0.725,0,1,0s0.725,0,1,0S52,1.225,52,1.5z"/>
		</g>
	</g>
</g>
</svg>
